<svg width="22" height="22" viewBox="0 0 22 22" fill="none" xmlns="http://www.w3.org/2000/svg">
<g clip-path="url(#clip0_41_2758)">
<path d="M10.5416 19.9375C5.36248 19.9375 1.14581 15.7209 1.14581 10.5417C1.14581 5.36254 5.36248 1.14587 10.5416 1.14587C15.7208 1.14587 19.9375 5.36254 19.9375 10.5417C19.9375 15.7209 15.7208 19.9375 10.5416 19.9375ZM10.5416 2.52087C6.11415 2.52087 2.52081 6.12337 2.52081 10.5417C2.52081 14.96 6.11415 18.5625 10.5416 18.5625C14.9691 18.5625 18.5625 14.96 18.5625 10.5417C18.5625 6.12337 14.9691 2.52087 10.5416 2.52087Z" fill="#181717" stroke="#181717" stroke-width="0.25"/>
<path d="M20.1667 20.8541C19.9925 20.8541 19.8183 20.7899 19.6808 20.6524L17.8475 18.8191C17.5817 18.5533 17.5817 18.1133 17.8475 17.8474C18.1133 17.5816 18.5533 17.5816 18.8192 17.8474L20.6525 19.6808C20.9183 19.9466 20.9183 20.3866 20.6525 20.6524C20.515 20.7899 20.3408 20.8541 20.1667 20.8541Z" fill="#181717" stroke="#181717" stroke-width="0.25"/>
</g>
<defs>
<clipPath id="clip0_41_2758">
<rect width="22" height="22" fill="white"/>
</clipPath>
</defs>
</svg>
